<?xml version="1.0" encoding="UTF-8" standalone="no"?><!DOCTYPE svg PUBLIC "-//W3C//DTD SVG 1.1//EN" "http://www.w3.org/Graphics/SVG/1.1/DTD/svg11.dtd"><svg width="32px" height="32px" version="1.1" xmlns="http://www.w3.org/2000/svg" xmlns:xlink="http://www.w3.org/1999/xlink" xml:space="preserve" xmlns:serif="http://www.serif.com/" style="fill-rule:evenodd;clip-rule:evenodd;stroke-linecap:round;stroke-linejoin:round;stroke-miterlimit:1.5;"><rect id="Artboard2" x="0" y="0" width="32" height="32" style="fill:none;"/><g><path d="M26.787,12.185L30.445,19.185L26.787,26.185" style="fill:none;stroke:#c586c0;stroke-width:2.5px;"/><path d="M11.358,12.185L7.7,19.185L11.358,26.185" style="fill:none;stroke:#c586c0;stroke-width:2.5px;"/><path d="M24.469,25.094L21.362,25.094L21.362,23.556C20.404,24.378 19.628,24.892 19.034,25.1C18.439,25.307 17.806,25.41 17.133,25.41C16.101,25.41 15.245,25.076 14.566,24.407C13.887,23.738 13.547,22.877 13.547,21.824C13.547,20.493 14.048,19.484 15.05,18.798C16.052,18.112 18.166,17.684 21.392,17.514L21.392,17.198C21.392,16.458 21.137,15.922 20.628,15.589C20.119,15.256 19.276,15.089 18.101,15.089C17.3,15.089 16.152,15.395 14.658,16.006L14.546,16.006L14.546,13.531C16.121,13.15 17.548,12.96 18.825,12.96C20.815,12.96 22.253,13.281 23.139,13.923C24.026,14.565 24.469,15.585 24.469,16.985L24.469,25.094ZM21.362,22.221L21.362,19.246C19.31,19.416 18.027,19.679 17.51,20.036C16.994,20.393 16.736,20.887 16.736,21.518C16.736,22.191 16.916,22.659 17.276,22.924C17.636,23.189 18.2,23.322 18.967,23.322C19.776,23.322 20.574,22.955 21.362,22.221Z" style="fill:#c586c0;fill-rule:nonzero;"/></g></svg>