<?xml version="1.0" encoding="UTF-8" standalone="no"?><!DOCTYPE svg PUBLIC "-//W3C//DTD SVG 1.1//EN" "http://www.w3.org/Graphics/SVG/1.1/DTD/svg11.dtd"><svg width="32px" height="32px" version="1.1" xmlns="http://www.w3.org/2000/svg" xmlns:xlink="http://www.w3.org/1999/xlink" xml:space="preserve" xmlns:serif="http://www.serif.com/" style="fill-rule:evenodd;clip-rule:evenodd;stroke-linecap:round;stroke-linejoin:round;stroke-miterlimit:1.5;"><rect id="Artboard3" x="0" y="0" width="32" height="32" style="fill:none;"/><g id="orig"><path d="M21.654,12.152L20.575,18.588L19.188,22.056L16,25.178" style="fill:none;stroke:#519aba;stroke-width:2.5px;"/><path d="M24.352,25.948L24.159,21.208L20.806,18.665" style="fill:none;stroke:#519aba;stroke-width:2.5px;"/><path d="M26.664,16L23.581,16L21.654,12.152L17.916,13.154L16,16.7" style="fill:none;stroke:#519aba;stroke-width:2.5px;"/><ellipse cx="22.579" cy="8.357" rx="1.773" ry="2.1" style="fill:#519aba;"/></g><g><path d="M20.1,13.863L18.76,14.222L17.1,17.294C16.772,17.901 16.013,18.127 15.406,17.799C14.799,17.471 14.572,16.712 14.9,16.105L16.816,12.56C16.98,12.258 17.261,12.036 17.592,11.947L21.33,10.945C21.503,10.899 21.683,10.89 21.861,10.92C22.257,10.986 22.594,11.237 22.772,11.593C22.772,11.593 24.353,14.75 24.353,14.75L26.664,14.75C27.354,14.75 27.914,15.31 27.914,16C27.914,16.69 27.354,17.25 26.664,17.25L23.581,17.25C23.108,17.25 22.675,16.983 22.463,16.56L22.253,16.14L21.948,17.962L24.914,20.213C25.212,20.438 25.393,20.785 25.408,21.158L25.601,25.898C25.629,26.587 25.092,27.169 24.402,27.197C23.713,27.225 23.131,26.688 23.103,25.999L22.934,21.848L21.157,20.5L20.348,22.52C20.284,22.682 20.186,22.828 20.062,22.949L16.875,26.071C16.382,26.553 15.59,26.545 15.107,26.052C14.624,25.559 14.633,24.767 15.125,24.285L18.125,21.347L19.365,18.249L20.1,13.863ZM22.579,6.256C23.557,6.256 24.352,7.197 24.352,8.357C24.352,9.516 23.557,10.457 22.579,10.457C21.601,10.457 20.806,9.516 20.806,8.357C20.806,7.197 21.601,6.256 22.579,6.256Z" style="fill:#519aba;"/></g></svg>