<?xml version="1.0" encoding="UTF-8" standalone="no"?><!DOCTYPE svg PUBLIC "-//W3C//DTD SVG 1.1//EN" "http://www.w3.org/Graphics/SVG/1.1/DTD/svg11.dtd"><svg width="32px" height="32px" version="1.1" xmlns="http://www.w3.org/2000/svg" xmlns:xlink="http://www.w3.org/1999/xlink" xml:space="preserve" xmlns:serif="http://www.serif.com/" style="fill-rule:evenodd;clip-rule:evenodd;stroke-linejoin:round;stroke-miterlimit:2;"><rect id="Artboard3" x="0" y="0" width="32" height="32" style="fill:none;"/><g><path d="M10.871,12.906C10.871,12.894 10.871,12.625 10.871,12.625C10.871,12.171 11.117,11.753 11.513,11.533L20.313,6.63C20.694,6.418 21.158,6.42 21.537,6.635L30.15,11.509C30.54,11.73 30.782,12.144 30.784,12.593L30.784,12.611C30.826,12.794 30.825,12.981 30.786,13.159L30.815,22.132C30.817,22.599 30.557,23.029 30.142,23.244L21.499,27.743C21.139,27.93 20.712,27.931 20.352,27.747L11.552,23.241C11.134,23.028 10.871,22.598 10.871,22.129L10.871,12.906ZM27.15,12.684L20.917,9.156L14.561,12.697L20.843,15.785L27.15,12.684ZM13.371,14.897L13.371,21.364L19.659,24.583C19.638,22.247 19.6,17.96 19.6,17.96L13.371,14.897ZM22.159,24.581C24.265,23.485 28.313,21.378 28.313,21.378L28.291,14.909L22.1,17.953L22.159,24.581Z" style="fill:#c586c0;"/></g></svg>