<?xml version="1.0" encoding="UTF-8" standalone="no"?><!DOCTYPE svg PUBLIC "-//W3C//DTD SVG 1.1//EN" "http://www.w3.org/Graphics/SVG/1.1/DTD/svg11.dtd"><svg width="32px" height="32px" version="1.1" xmlns="http://www.w3.org/2000/svg" xmlns:xlink="http://www.w3.org/1999/xlink" xml:space="preserve" xmlns:serif="http://www.serif.com/" style="fill-rule:evenodd;clip-rule:evenodd;stroke-linejoin:round;stroke-miterlimit:2;"><rect id="Artboard3" x="0" y="0" width="32" height="32" style="fill:none;"/><g><path d="M20.873,18.944L14.123,18.944C13.432,18.944 12.873,18.384 12.873,17.694L12.873,9.694C12.873,9.003 13.432,8.444 14.123,8.444L30.123,8.444C30.813,8.444 31.373,9.003 31.373,9.694L31.373,25.694C31.373,26.384 30.813,26.944 30.123,26.944L22.123,26.944C21.432,26.944 20.873,26.384 20.873,25.694L20.873,18.944ZM20.873,10.944C20.873,10.944 15.373,10.944 15.373,10.944C15.373,10.944 15.373,16.444 15.373,16.444C15.373,16.444 20.873,16.444 20.873,16.444L20.873,10.944ZM28.873,16.444L28.873,10.944C28.873,10.944 23.373,10.944 23.373,10.944L23.373,16.444L28.873,16.444ZM23.373,18.944C23.373,18.944 23.373,24.444 23.373,24.444C23.373,24.444 28.873,24.444 28.873,24.444L28.873,18.944L23.373,18.944Z" style="fill:#519aba;"/></g></svg>