{
    "asset" : {
        "generator" : "Khronos glTF Blender I/O v1.6.16",
        "version" : "2.0"
    },
    "scene" : 0,
    "scenes" : [
        {
            "name" : "Scene",
            "nodes" : [
                0,
                1,
                2,
                3,
                4
            ]
        }
    ],
    "nodes" : [
        {
            "mesh" : 0,
            "name" : "prop_item",
            "translation" : [
                1.100000023841858,
                3.299999952316284,
                -2.200000047683716
            ]
        },
        {
            "mesh" : 1,
            "name" : "hitbox",
            "scale" : [
                1.999996542930603,
                2,
                1.9999972581863403
            ],
            "translation" : [
                -0.047074317932128906,
                0.2670869827270508,
                0.13503074645996094
            ]
        },
        {
            "mesh" : 2,
            "name" : "hitbox_1",
            "translation" : [
                0.2445559948682785,
                0.2670869827270508,
                -0.9814109802246094
            ]
        },
        {
            "mesh" : 3,
            "name" : "UnevenBlocker",
            "scale" : [
                1,
                2,
                2
            ],
            "translation" : [
                0.2573103904724121,
                0,
                0
            ]
        },
        {
            "mesh" : 4,
            "name" : "ground",
            "scale" : [
                2.092877149581909,
                1,
                2.092877149581909
            ],
            "translation" : [
                0.12024934589862823,
                0,
                0.04412020742893219
            ]
        }
    ],
    "meshes" : [
        {
            "name" : "some_file.prp",
            "primitives" : [
                {
                    "attributes" : {
                        "POSITION" : 0,
                        "NORMAL" : 1,
                        "TEXCOORD_0" : 2
                    },
                    "indices" : 3
                }
            ]
        },
        {
            "name" : "Cube.001",
            "primitives" : [
                {
                    "attributes" : {
                        "POSITION" : 4,
                        "NORMAL" : 5,
                        "TEXCOORD_0" : 6
                    },
                    "indices" : 3
                }
            ]
        },
        {
            "name" : "Cube.002",
            "primitives" : [
                {
                    "attributes" : {
                        "POSITION" : 7,
                        "NORMAL" : 8,
                        "TEXCOORD_0" : 9
                    },
                    "indices" : 3
                }
            ]
        },
        {
            "name" : "Plane",
            "primitives" : [
                {
                    "attributes" : {
                        "POSITION" : 10,
                        "NORMAL" : 11,
                        "TEXCOORD_0" : 12
                    },
                    "indices" : 13
                }
            ]
        },
        {
            "name" : "Plane.001",
            "primitives" : [
                {
                    "attributes" : {
                        "POSITION" : 14,
                        "NORMAL" : 15,
                        "TEXCOORD_0" : 16
                    },
                    "indices" : 13
                }
            ]
        }
    ],
    "accessors" : [
        {
            "bufferView" : 0,
            "componentType" : 5126,
            "count" : 24,
            "max" : [
                0.045935630798339844,
                0.040155649185180664,
                0.0541384220123291
            ],
            "min" : [
                -0.045935630798339844,
                -0.040155649185180664,
                -0.0541384220123291
            ],
            "type" : "VEC3"
        },
        {
            "bufferView" : 1,
            "componentType" : 5126,
            "count" : 24,
            "type" : "VEC3"
        },
        {
            "bufferView" : 2,
            "componentType" : 5126,
            "count" : 24,
            "type" : "VEC2"
        },
        {
            "bufferView" : 3,
            "componentType" : 5123,
            "count" : 36,
            "type" : "SCALAR"
        },
        {
            "bufferView" : 4,
            "componentType" : 5126,
            "count" : 24,
            "max" : [
                0.6308662295341492,
                0.2670869827270508,
                0.8546393513679504
            ],
            "min" : [
                -0.6308658719062805,
                -0.2670869827270508,
                -0.08452194929122925
            ],
            "type" : "VEC3"
        },
        {
            "bufferView" : 5,
            "componentType" : 5126,
            "count" : 24,
            "type" : "VEC3"
        },
        {
            "bufferView" : 6,
            "componentType" : 5126,
            "count" : 24,
            "type" : "VEC2"
        },
        {
            "bufferView" : 7,
            "componentType" : 5126,
            "count" : 24,
            "max" : [
                0.6308660507202148,
                0.2670869827270508,
                0.46958065032958984
            ],
            "min" : [
                -0.6308660507202148,
                -0.2670869827270508,
                -0.46958065032958984
            ],
            "type" : "VEC3"
        },
        {
            "bufferView" : 8,
            "componentType" : 5126,
            "count" : 24,
            "type" : "VEC3"
        },
        {
            "bufferView" : 9,
            "componentType" : 5126,
            "count" : 24,
            "type" : "VEC2"
        },
        {
            "bufferView" : 10,
            "componentType" : 5126,
            "count" : 4,
            "max" : [
                1,
                0,
                1
            ],
            "min" : [
                -2.0370004177093506,
                0,
                -1
            ],
            "type" : "VEC3"
        },
        {
            "bufferView" : 11,
            "componentType" : 5126,
            "count" : 4,
            "type" : "VEC3"
        },
        {
            "bufferView" : 12,
            "componentType" : 5126,
            "count" : 4,
            "type" : "VEC2"
        },
        {
            "bufferView" : 13,
            "componentType" : 5123,
            "count" : 6,
            "type" : "SCALAR"
        },
        {
            "bufferView" : 14,
            "componentType" : 5126,
            "count" : 4,
            "max" : [
                1,
                0,
                1
            ],
            "min" : [
                -1,
                0,
                -1
            ],
            "type" : "VEC3"
        },
        {
            "bufferView" : 15,
            "componentType" : 5126,
            "count" : 4,
            "type" : "VEC3"
        },
        {
            "bufferView" : 16,
            "componentType" : 5126,
            "count" : 4,
            "type" : "VEC2"
        }
    ],
    "bufferViews" : [
        {
            "buffer" : 0,
            "byteLength" : 288,
            "byteOffset" : 0
        },
        {
            "buffer" : 0,
            "byteLength" : 288,
            "byteOffset" : 288
        },
        {
            "buffer" : 0,
            "byteLength" : 192,
            "byteOffset" : 576
        },
        {
            "buffer" : 0,
            "byteLength" : 72,
            "byteOffset" : 768
        },
        {
            "buffer" : 0,
            "byteLength" : 288,
            "byteOffset" : 840
        },
        {
            "buffer" : 0,
            "byteLength" : 288,
            "byteOffset" : 1128
        },
        {
            "buffer" : 0,
            "byteLength" : 192,
            "byteOffset" : 1416
        },
        {
            "buffer" : 0,
            "byteLength" : 288,
            "byteOffset" : 1608
        },
        {
            "buffer" : 0,
            "byteLength" : 288,
            "byteOffset" : 1896
        },
        {
            "buffer" : 0,
            "byteLength" : 192,
            "byteOffset" : 2184
        },
        {
            "buffer" : 0,
            "byteLength" : 48,
            "byteOffset" : 2376
        },
        {
            "buffer" : 0,
            "byteLength" : 48,
            "byteOffset" : 2424
        },
        {
            "buffer" : 0,
            "byteLength" : 32,
            "byteOffset" : 2472
        },
        {
            "buffer" : 0,
            "byteLength" : 12,
            "byteOffset" : 2504
        },
        {
            "buffer" : 0,
            "byteLength" : 48,
            "byteOffset" : 2516
        },
        {
            "buffer" : 0,
            "byteLength" : 48,
            "byteOffset" : 2564
        },
        {
            "buffer" : 0,
            "byteLength" : 32,
            "byteOffset" : 2612
        }
    ],
    "buffers" : [
        {
            "byteLength" : 2644,
            "uri" : "props.bin"
        }
    ]
}
