{
    "asset" : {
        "generator" : "Khronos glTF Blender I/O v1.6.16",
        "version" : "2.0"
    },
    "scene" : 0,
    "scenes" : [
        {
            "name" : "Scene",
            "nodes" : [
                0,
                1,
                2,
                3,
                4,
                5,
                6,
                7,
                8
            ]
        }
    ],
    "nodes" : [
        {
            "mesh" : 0,
            "name" : "prop_item",
            "translation" : [
                1.100000023841858,
                3.299999952316284,
                -2.200000047683716
            ]
        },
        {
            "mesh" : 1,
            "name" : "hitbox",
            "scale" : [
                1.999996542930603,
                2,
                1.9999972581863403
            ],
            "translation" : [
                -0.047074317932128906,
                0.2670869827270508,
                0.13503074645996094
            ]
        },
        {
            "mesh" : 2,
            "name" : "hitbox_1",
            "translation" : [
                0.2445559948682785,
                0.2670869827270508,
                -0.9814109802246094
            ]
        },
        {
            "mesh" : 3,
            "name" : "UnevenBlocker",
            "scale" : [
                1,
                2,
                2
            ],
            "translation" : [
                0.2573103904724121,
                0,
                0
            ]
        },
        {
            "mesh" : 4,
            "name" : "ground",
            "scale" : [
                2.092877149581909,
                1,
                2.092877149581909
            ],
            "translation" : [
                0.12024934589862823,
                0,
                0.04412020742893219
            ]
        },
        {
            "mesh" : 5,
            "name" : "FeedbackBlocker",
            "translation" : [
                0.33001387119293213,
                -0.225605309009552,
                -2.4634015560150146
            ]
        },
        {
            "mesh" : 6,
            "name" : "FeedbackBlocker.001",
            "translation" : [
                0.33001387119293213,
                -0.225605309009552,
                -2.4634015560150146
            ]
        },
        {
            "mesh" : 7,
            "name" : "dummy_transporter_spawn",
            "rotation" : [
                0,
                -1,
                0,
                -4.371138828673793e-08
            ],
            "translation" : [
                -2.4267001152038574,
                0,
                1.2902079820632935
            ]
        },
        {
            "mesh" : 8,
            "name" : "dummy_DamageImpact123",
            "scale" : [
                1,
                1,
                2
            ],
            "translation" : [
                -0.5348304510116577,
                0.927330732345581,
                1.2902079820632935
            ]
        }
    ],
    "meshes" : [
        {
            "name" : "some_file.prp",
            "primitives" : [
                {
                    "attributes" : {
                        "POSITION" : 0,
                        "NORMAL" : 1,
                        "TANGENT" : 2,
                        "TEXCOORD_0" : 3
                    },
                    "indices" : 4
                }
            ]
        },
        {
            "name" : "Cube.001",
            "primitives" : [
                {
                    "attributes" : {
                        "POSITION" : 5,
                        "NORMAL" : 6,
                        "TANGENT" : 7,
                        "TEXCOORD_0" : 8
                    },
                    "indices" : 4
                }
            ]
        },
        {
            "name" : "Cube.002",
            "primitives" : [
                {
                    "attributes" : {
                        "POSITION" : 9,
                        "NORMAL" : 10,
                        "TANGENT" : 11,
                        "TEXCOORD_0" : 12
                    },
                    "indices" : 4
                }
            ]
        },
        {
            "name" : "Plane",
            "primitives" : [
                {
                    "attributes" : {
                        "POSITION" : 13,
                        "NORMAL" : 14,
                        "TANGENT" : 15,
                        "TEXCOORD_0" : 16
                    },
                    "indices" : 17
                }
            ]
        },
        {
            "name" : "Plane.001",
            "primitives" : [
                {
                    "attributes" : {
                        "POSITION" : 18,
                        "NORMAL" : 19,
                        "TANGENT" : 20,
                        "TEXCOORD_0" : 21
                    },
                    "indices" : 17
                }
            ]
        },
        {
            "name" : "Plane.007",
            "primitives" : [
                {
                    "attributes" : {
                        "POSITION" : 22,
                        "NORMAL" : 23,
                        "TANGENT" : 24,
                        "TEXCOORD_0" : 25
                    },
                    "indices" : 17
                }
            ]
        },
        {
            "name" : "Plane.009",
            "primitives" : [
                {
                    "attributes" : {
                        "POSITION" : 26,
                        "NORMAL" : 27,
                        "TANGENT" : 28,
                        "TEXCOORD_0" : 29
                    },
                    "indices" : 17
                }
            ]
        },
        {
            "name" : "Cube.012",
            "primitives" : [
                {
                    "attributes" : {
                        "POSITION" : 30,
                        "NORMAL" : 31,
                        "TANGENT" : 32,
                        "TEXCOORD_0" : 33
                    },
                    "indices" : 4
                }
            ]
        },
        {
            "name" : "Cube.003",
            "primitives" : [
                {
                    "attributes" : {
                        "POSITION" : 34,
                        "NORMAL" : 35,
                        "TANGENT" : 36,
                        "TEXCOORD_0" : 37
                    },
                    "indices" : 4
                }
            ]
        }
    ],
    "accessors" : [
        {
            "bufferView" : 0,
            "componentType" : 5126,
            "count" : 24,
            "max" : [
                0.045935630798339844,
                0.040155649185180664,
                0.0541384220123291
            ],
            "min" : [
                -0.045935630798339844,
                -0.040155649185180664,
                -0.0541384220123291
            ],
            "type" : "VEC3"
        },
        {
            "bufferView" : 1,
            "componentType" : 5126,
            "count" : 24,
            "type" : "VEC3"
        },
        {
            "bufferView" : 2,
            "componentType" : 5126,
            "count" : 24,
            "type" : "VEC4"
        },
        {
            "bufferView" : 3,
            "componentType" : 5126,
            "count" : 24,
            "type" : "VEC2"
        },
        {
            "bufferView" : 4,
            "componentType" : 5123,
            "count" : 36,
            "type" : "SCALAR"
        },
        {
            "bufferView" : 5,
            "componentType" : 5126,
            "count" : 24,
            "max" : [
                0.6308662295341492,
                0.2670869827270508,
                0.8546393513679504
            ],
            "min" : [
                -0.6308658719062805,
                -0.2670869827270508,
                -0.08452194929122925
            ],
            "type" : "VEC3"
        },
        {
            "bufferView" : 6,
            "componentType" : 5126,
            "count" : 24,
            "type" : "VEC3"
        },
        {
            "bufferView" : 7,
            "componentType" : 5126,
            "count" : 24,
            "type" : "VEC4"
        },
        {
            "bufferView" : 8,
            "componentType" : 5126,
            "count" : 24,
            "type" : "VEC2"
        },
        {
            "bufferView" : 9,
            "componentType" : 5126,
            "count" : 24,
            "max" : [
                0.6308660507202148,
                0.2670869827270508,
                0.46958065032958984
            ],
            "min" : [
                -0.6308660507202148,
                -0.2670869827270508,
                -0.46958065032958984
            ],
            "type" : "VEC3"
        },
        {
            "bufferView" : 10,
            "componentType" : 5126,
            "count" : 24,
            "type" : "VEC3"
        },
        {
            "bufferView" : 11,
            "componentType" : 5126,
            "count" : 24,
            "type" : "VEC4"
        },
        {
            "bufferView" : 12,
            "componentType" : 5126,
            "count" : 24,
            "type" : "VEC2"
        },
        {
            "bufferView" : 13,
            "componentType" : 5126,
            "count" : 4,
            "max" : [
                1,
                0,
                1
            ],
            "min" : [
                -2.0370004177093506,
                0,
                -1
            ],
            "type" : "VEC3"
        },
        {
            "bufferView" : 14,
            "componentType" : 5126,
            "count" : 4,
            "type" : "VEC3"
        },
        {
            "bufferView" : 15,
            "componentType" : 5126,
            "count" : 4,
            "type" : "VEC4"
        },
        {
            "bufferView" : 16,
            "componentType" : 5126,
            "count" : 4,
            "type" : "VEC2"
        },
        {
            "bufferView" : 17,
            "componentType" : 5123,
            "count" : 6,
            "type" : "SCALAR"
        },
        {
            "bufferView" : 18,
            "componentType" : 5126,
            "count" : 4,
            "max" : [
                1,
                0,
                1
            ],
            "min" : [
                -1,
                0,
                -1
            ],
            "type" : "VEC3"
        },
        {
            "bufferView" : 19,
            "componentType" : 5126,
            "count" : 4,
            "type" : "VEC3"
        },
        {
            "bufferView" : 20,
            "componentType" : 5126,
            "count" : 4,
            "type" : "VEC4"
        },
        {
            "bufferView" : 21,
            "componentType" : 5126,
            "count" : 4,
            "type" : "VEC2"
        },
        {
            "bufferView" : 22,
            "componentType" : 5126,
            "count" : 4,
            "max" : [
                1.6699862480163574,
                0.225605309009552,
                4.463401794433594
            ],
            "min" : [
                -2.3300137519836426,
                0.225605309009552,
                3.9634015560150146
            ],
            "type" : "VEC3"
        },
        {
            "bufferView" : 23,
            "componentType" : 5126,
            "count" : 4,
            "type" : "VEC3"
        },
        {
            "bufferView" : 24,
            "componentType" : 5126,
            "count" : 4,
            "type" : "VEC4"
        },
        {
            "bufferView" : 25,
            "componentType" : 5126,
            "count" : 4,
            "type" : "VEC2"
        },
        {
            "bufferView" : 26,
            "componentType" : 5126,
            "count" : 4,
            "max" : [
                1.6699861288070679,
                0.225605309009552,
                3.9634015560150146
            ],
            "min" : [
                1.1699862480163574,
                0.225605309009552,
                0.9634015560150146
            ],
            "type" : "VEC3"
        },
        {
            "bufferView" : 27,
            "componentType" : 5126,
            "count" : 4,
            "type" : "VEC3"
        },
        {
            "bufferView" : 28,
            "componentType" : 5126,
            "count" : 4,
            "type" : "VEC4"
        },
        {
            "bufferView" : 29,
            "componentType" : 5126,
            "count" : 4,
            "type" : "VEC2"
        },
        {
            "bufferView" : 30,
            "componentType" : 5126,
            "count" : 24,
            "max" : [
                0.06856977939605713,
                0.0895802304148674,
                0.07533609867095947
            ],
            "min" : [
                -0.06856977939605713,
                -0.0895802304148674,
                -0.07533609867095947
            ],
            "type" : "VEC3"
        },
        {
            "bufferView" : 31,
            "componentType" : 5126,
            "count" : 24,
            "type" : "VEC3"
        },
        {
            "bufferView" : 32,
            "componentType" : 5126,
            "count" : 24,
            "type" : "VEC4"
        },
        {
            "bufferView" : 33,
            "componentType" : 5126,
            "count" : 24,
            "type" : "VEC2"
        },
        {
            "bufferView" : 34,
            "componentType" : 5126,
            "count" : 24,
            "max" : [
                0.06856977939605713,
                0.0895802304148674,
                0.07533609867095947
            ],
            "min" : [
                -0.06856977939605713,
                -0.0895802304148674,
                -0.07533609867095947
            ],
            "type" : "VEC3"
        },
        {
            "bufferView" : 35,
            "componentType" : 5126,
            "count" : 24,
            "type" : "VEC3"
        },
        {
            "bufferView" : 36,
            "componentType" : 5126,
            "count" : 24,
            "type" : "VEC4"
        },
        {
            "bufferView" : 37,
            "componentType" : 5126,
            "count" : 24,
            "type" : "VEC2"
        }
    ],
    "bufferViews" : [
        {
            "buffer" : 0,
            "byteLength" : 288,
            "byteOffset" : 0
        },
        {
            "buffer" : 0,
            "byteLength" : 288,
            "byteOffset" : 288
        },
        {
            "buffer" : 0,
            "byteLength" : 384,
            "byteOffset" : 576
        },
        {
            "buffer" : 0,
            "byteLength" : 192,
            "byteOffset" : 960
        },
        {
            "buffer" : 0,
            "byteLength" : 72,
            "byteOffset" : 1152
        },
        {
            "buffer" : 0,
            "byteLength" : 288,
            "byteOffset" : 1224
        },
        {
            "buffer" : 0,
            "byteLength" : 288,
            "byteOffset" : 1512
        },
        {
            "buffer" : 0,
            "byteLength" : 384,
            "byteOffset" : 1800
        },
        {
            "buffer" : 0,
            "byteLength" : 192,
            "byteOffset" : 2184
        },
        {
            "buffer" : 0,
            "byteLength" : 288,
            "byteOffset" : 2376
        },
        {
            "buffer" : 0,
            "byteLength" : 288,
            "byteOffset" : 2664
        },
        {
            "buffer" : 0,
            "byteLength" : 384,
            "byteOffset" : 2952
        },
        {
            "buffer" : 0,
            "byteLength" : 192,
            "byteOffset" : 3336
        },
        {
            "buffer" : 0,
            "byteLength" : 48,
            "byteOffset" : 3528
        },
        {
            "buffer" : 0,
            "byteLength" : 48,
            "byteOffset" : 3576
        },
        {
            "buffer" : 0,
            "byteLength" : 64,
            "byteOffset" : 3624
        },
        {
            "buffer" : 0,
            "byteLength" : 32,
            "byteOffset" : 3688
        },
        {
            "buffer" : 0,
            "byteLength" : 12,
            "byteOffset" : 3720
        },
        {
            "buffer" : 0,
            "byteLength" : 48,
            "byteOffset" : 3732
        },
        {
            "buffer" : 0,
            "byteLength" : 48,
            "byteOffset" : 3780
        },
        {
            "buffer" : 0,
            "byteLength" : 64,
            "byteOffset" : 3828
        },
        {
            "buffer" : 0,
            "byteLength" : 32,
            "byteOffset" : 3892
        },
        {
            "buffer" : 0,
            "byteLength" : 48,
            "byteOffset" : 3924
        },
        {
            "buffer" : 0,
            "byteLength" : 48,
            "byteOffset" : 3972
        },
        {
            "buffer" : 0,
            "byteLength" : 64,
            "byteOffset" : 4020
        },
        {
            "buffer" : 0,
            "byteLength" : 32,
            "byteOffset" : 4084
        },
        {
            "buffer" : 0,
            "byteLength" : 48,
            "byteOffset" : 4116
        },
        {
            "buffer" : 0,
            "byteLength" : 48,
            "byteOffset" : 4164
        },
        {
            "buffer" : 0,
            "byteLength" : 64,
            "byteOffset" : 4212
        },
        {
            "buffer" : 0,
            "byteLength" : 32,
            "byteOffset" : 4276
        },
        {
            "buffer" : 0,
            "byteLength" : 288,
            "byteOffset" : 4308
        },
        {
            "buffer" : 0,
            "byteLength" : 288,
            "byteOffset" : 4596
        },
        {
            "buffer" : 0,
            "byteLength" : 384,
            "byteOffset" : 4884
        },
        {
            "buffer" : 0,
            "byteLength" : 192,
            "byteOffset" : 5268
        },
        {
            "buffer" : 0,
            "byteLength" : 288,
            "byteOffset" : 5460
        },
        {
            "buffer" : 0,
            "byteLength" : 288,
            "byteOffset" : 5748
        },
        {
            "buffer" : 0,
            "byteLength" : 384,
            "byteOffset" : 6036
        },
        {
            "buffer" : 0,
            "byteLength" : 192,
            "byteOffset" : 6420
        }
    ],
    "buffers" : [
        {
            "byteLength" : 6612,
            "uri" : "props.bin"
        }
    ]
}
